PathFileType	4	(X/Y/Z)	OpenSim_Sub02_CSStiffKnee_Accel.trc
DataRate	CameraRate	NumFrames	NumMarkers	Units	OrigDataRate	OrigDataStartFrame	OrigNumFrames
100	100	17	8	m	100	5169	6891
Frame#	Time	torso_imu_offset_imu	pelvis_imu_offset_imu	tibia_r_imu_offset_imu	femur_r_imu_offset_imu	tibia_l_imu_offset_imu	femur_l_imu_offset_imu	toes_r_imu_offset_imu	toes_l_imu_offset_imu
				X1	Y1	Z1	X2	Y2	Z2	X3	Y3	Z3	X4	Y4	Z4	X5	Y5	Z5	X6	Y6	Z6	X7	Y7	Z7	X8		Y8	Z8	

5169	51.68000000	8.38484716	0.81023502	6.73154280	9.46625906	-1.90659129	1.53066060	8.25468586	6.08539007	4.55279059	6.39977577	-0.79689956	4.31423169	9.52845843	-3.06917598	1.29223204	9.38160502	-0.29480584	-1.81912018	12.40337468	1.20269851	11.80940965	4.19384729	0.61450928	11.66417043
5170	51.69000000	8.22529092	0.72073655	6.86149088	9.20797698	-1.88338076	1.58313266	8.37860887	5.23389030	3.82677244	6.67354748	-0.90436548	4.29529640	9.72393062	-2.92602149	1.26298783	9.43824691	-0.05675725	-1.61706703	12.66298336	0.92588801	10.96923190	3.92154488	0.58176206	11.90886545
5171	51.70000000	8.19507598	0.76736720	7.01727878	9.00648771	-1.84336077	1.66022298	8.94988472	2.78436944	3.16637856	7.02468803	-1.10356612	4.21854215	9.93876144	-2.74143313	1.47533666	9.73459468	-0.04757346	-1.59768251	12.93145161	1.76449544	9.89848049	3.37606387	0.52031142	12.17988568
5172	51.71000000	8.25861053	0.80164529	7.07131566	8.84392182	-1.71505942	1.89712700	10.27196420	-0.74029631	2.18135209	7.52054440	-1.63886569	4.21550678	10.14385685	-2.36117885	1.65707072	9.99930344	-0.04910665	-1.73403278	14.30554963	3.42908183	8.89016835	3.61909597	0.14188587	12.09515697
5173	51.72000000	8.33474268	0.75852710	6.98823255	8.70599802	-1.50237001	2.18682105	11.54822941	-3.39857428	1.58043836	8.18359494	-2.96532898	4.24257180	10.54891636	-1.36840291	1.62349240	10.27637501	0.01646453	-1.91649870	15.99575945	3.55431906	6.64099925	3.89352760	-0.05532719	12.06640921
5174	51.73000000	8.45586621	0.76731036	6.97215875	8.53252304	-1.24396547	2.36762112	12.30554929	-3.64295406	1.57926919	8.93796009	-5.42910936	4.23612810	10.76538061	-0.30968100	1.60887685	10.37995670	0.26643175	-2.21355731	17.36040654	2.48766851	1.80971090	4.07795058	-0.00867689	11.96747104
5175	51.74000000	8.49048508	0.87250168	6.94523103	8.63257566	-0.81636458	2.43144999	13.02189856	-1.41690549	1.40496868	9.68282774	-8.38887349	4.58460829	10.87719022	0.48961183	1.37548131	10.34705642	0.86153423	-2.29119115	20.69921890	5.40910532	-0.01561969	3.67405990	-0.17670472	12.14262638
5176	51.75000000	8.65065459	1.03085773	6.98386855	8.71896718	-0.59591091	2.31399111	12.65420226	1.58153447	1.60890339	10.21339998	-11.11505127	5.10768135	11.08778194	0.79354848	1.43718590	10.04856978	1.51195084	-2.34604681	22.60429506	6.51890891	-1.49043795	3.43922701	0.01373176	12.32498051
5177	51.76000000	8.85332239	0.98711592	6.89016641	8.88402614	-0.65568333	2.09906728	10.63056647	4.21248103	0.33734822	9.93468466	-12.96018353	5.09464182	11.13923526	1.09262893	0.69827858	9.80735955	1.78527118	-2.30474719	23.12824064	4.61938514	-3.86574299	3.98136803	0.18792914	12.44579014
5178	51.77000000	9.24631272	0.78044977	6.71527747	9.50176333	-0.84633489	1.91111025	7.90355079	5.68572399	-0.93762046	9.08191104	-13.02764294	4.91156020	12.00297660	1.45100203	-0.11865597	9.49704253	1.70402949	-2.04971234	22.95359564	3.39758325	-6.18893820	3.89358414	0.19695427	12.56822304
5179	51.78000000	9.83275161	0.65716878	6.58201173	10.33338894	-1.40298564	1.56899207	6.71558618	5.16441229	-0.19009433	8.17778877	-11.11076253	5.03400161	12.57551317	1.65864529	-0.10897766	9.45988396	1.37508713	-2.05916750	22.45781534	3.04756468	-8.41713134	4.05206129	0.44130199	12.60172538
5180	51.79000000	10.47772451	0.59655295	6.81786678	10.88105807	-2.24119832	1.32124133	7.77358513	2.73509164	1.00110716	7.55159883	-8.61077231	4.88573385	12.58244919	1.56440784	-0.24953881	9.34332728	0.80541949	-2.28935612	24.02753960	3.27103420	-11.61170191	3.54663403	0.41354667	12.84445185
5181	51.80000000	10.74932039	0.58298943	6.78885661	11.24157765	-3.10775788	1.33106279	9.56456674	-0.15391732	0.95066935	7.46298997	-6.49762497	4.08266475	12.37987326	1.62287970	-0.06790695	9.58449402	0.53341958	-2.89591984	21.96786331	5.78488504	-14.32784868	3.59482417	0.17616427	12.91230704
5182	51.81000000	10.81974483	0.76996675	7.03650241	11.90525552	-3.45252934	2.29746005	11.14221550	-2.56409653	0.99920469	7.78958911	-4.56373268	2.79263258	12.48136485	1.74506784	0.43303107	9.92006014	0.00076686	-3.20371681	3.37675638	9.02469068	5.16408225	3.63652906	0.36238907	13.19838207
5183	51.82000000	11.30507192	0.96067691	7.67561635	13.36657329	-2.51456353	4.54622255	13.97775076	-3.10588039	0.19892231	9.28974571	-3.11390132	1.99831495	13.13820263	1.91210858	0.88811616	10.45640581	-0.32985399	-3.57716745	-1.08760534	-2.96753891	30.45486909	3.49381380	0.37348676	13.53692555
5184	51.83000000	12.52442682	0.75223268	8.26896580	15.29681674	-0.19323699	5.96200263	19.33772534	-3.88879597	0.36745780	14.42773912	-3.40988168	0.48882045	14.38240501	2.32776620	1.03890889	11.08535020	-0.33940171	-3.48657159	9.58724745	-16.09264515	8.89512388	3.37191684	0.83690476	14.02489656
5185	51.84000000	14.07921299	-0.13554806	8.33201874	15.65914031	1.69539535	5.46265658	23.22567238	-6.53502709	8.24364073	19.23183097	-7.03040571	-2.33138606	15.53834982	2.86144596	1.91797720	11.59829206	-0.81179567	-2.99774082	23.09615155	1.54224348	19.73661863	2.07327491	2.37201578	14.87103387
